/* XPM */
static char *boss[] = {
/* columns rows colors chars-per-pixel */
"53 59 9 1",
"  c #00162B",
". c #223745",
"X c #B65A17",
"o c #FAA431",
"O c #276B95",
"+ c #5CAABF",
"@ c #FFF7A1",
"# c #C8FFF6",
"$ c None",
/* pixels */
"$$$$$$$$$$$OO$$$$$$$$$$$$$$$$$$$$$$$$$$$OO$$$$$$$$$$$",
"$$$$$$$$$$$OO$$$OOOO.$O.$$$$$.O$.OOOO$$$OO$$$$$$$$$$$",
"$$$$$$$$$$$  $$ ++#+. #. OOO .# .+#++ $$  $$$$$$$$$$$",
"$$$$$$$$$$$  $$ ++#+.##.+###+.##.+#++ $$  $$$$$$$$$$$",
"$$$$$$$$$$...OO.OO#+O#+#.###.#+#O+#OO.OO...$$$$$$$$$$",
"$$$$$$$$$.##### OO#+O+++#...#+++O+#OO #####.$$$$$$$$$",
"$$$$$$OO$.+#### O#++O++++###++++O++#O ####+.$OO$$$$$$",
"$$$$$$..$.+++++ #+++#O+++++++++O#+++# +++++.$..$$$$$$",
"$$$$$$.. .+oo++ +++++#O++OOO++O#+++++ ++oo+. ..$$$$$$",
"$$$$$$..+. oo++ O+++++#O+++++O#+++++O ++oo .+..$$$$$$",
"$$$$$$.++.O OOO OO++++ ..OOO.. ++++OO OOO O.++.$$$$$$",
"$$$$$$.++ O OOO .OO+++ ..OOO.. +++OO. OOO O ++.$$$$$$",
"$$$$$$.++   O..  .OOOO         OOOO.  ..O   ++.$$$$$$",
"$$$$$..OO.##.##### ...  #@@@#  ... #####.##.OO..$$$$$",
"$$$$.+ OO.++O##### ... #+ooo+# ... #####O++.OO +.$$$$",
"$$$.+O OO.++O+++++     ++ooo++     +++++O++.OO O+.$$$",
"$$$.OO OO.++O++OO+.O.##++ooo++##.O.+OO++O++.OO OO.$$$",
"$$$ OO .. ++.+++++.O.##++ooo++##.O.+++++.++ .. OO $$$",
"$$$ .. .. ++.++OO+.O.++++ooo++++.O.+OO++.++ .. .. $$$",
"$$$ .. .. OO.#++++.O.++++ooo++++.O.++++#.OO .. .. $$$",
"$$$    .. OO..#+++.O.O+++XXX+++O.O.+++#..OO ..    $$$",
"$$$$$$ . +..+..+++.OO.OOOXXXOOO.OO.+++..+..+ . $$$$$$",
"$$$$$$  ++..++.+++.##..OOXXXOO..##.+++.++..++  $$$$$$",
"$$$$$$$ OO.... OOO.##..  ###  ..##.OOO ....OO $$$$$$$",
"$$$$$$$$ ..... OO..++.. #+++# ..++..OO ..... $$$$$$$$",
"$$$$$$$$$   OOOO...O+O. +++++ .O+O...OOOO   $$$$$$$$$",
"$$$$$$$$.OO.### ...O+OO +###+ OO+O... ###.OO.$$$$$$$$",
"$$$$$$$..OO.### ..OO.OO.#OOO#.OO.OO.. ###.OO..$$$$$$$",
"$$$$$$.+.OO.+++ .OOO.OO.O+++O.OO.OOO. +++.OO.+.$$$$$$",
"$$$$$.+O.OO.+++.OOOO.OO.O+++O.OO.OOOO.+++.OO.O+.$$$$$",
"$$$$$.OO.OO.OOO.O+OOO#O.O+++O.O#OOO+O.OOO.OO.OO.$$$$$",
"$$$$$.O. OO.OOO.O+OO#+#.+OOO+.#+#OO+O.OOO.OO .O.$$$$$",
"$$$$$ .  ++O.....+O#+++O+++++O+++#O+.....O++  . $$$$$",
"$$$$$  $ ++ O....+#++++O+++++O++++#+....O ++ $  $$$$$",
"$$$$$ $$ + # O...+#o++++O+++O++++o#+...O # + $$ $$$$$",
"$$$$$$$$$ ##. O..+#oo++++###++++oo#+..O .## $$$$$$$$$",
"$$$$$$$$O###.O.O.+#+oo+++###+++oo+#+.O.O.###O$$$$$$$$",
"$$$$$$$O####.OO.OO#++oX++###++Xo++#OO.OO.####O$$$$$$$",
"$$$$$$O#####.OO .# +#+XX#####XX+#+ #. OO.#####O$$$$$$",
"$$$$$O#+##++####.##.##+X#####X+##.##.####++##+#O$$$$$",
"$$$$O#++##+#####.##.O#++#+++#++#O.##.#####+##++#O$$$$",
"$$$.++++##O#####.++.O ++#+++#++ O.++.#####O##++++.$$$",
"$$.oO+++##O+++++.oo...+#+++++#+...oo.+++++O##+++Oo.$$",
"$.ooOO++##O+++++.oo.O #+++++++# O.oo.+++++O##++OOoo.$",
" +XXO+O+##.+++++.oo.O  #######  O.oo.+++++.##+O+OXX+ ",
" OXXO+O+OO#+++++.oo.O..OOOOOOO..O.oo.+++++#OO+O+OXXO ",
" .XXO+O+OOO#OOOO.oo..O.OOOOOOO.O..oo.OOOO#OOO+O+OXX. ",
" ..OOO++OOO#OOOO.XX.OO.oo@@@oo.OO.XX.OOOO#OOO++OOO.. ",
" ..OO+++OOO ..oo.XX.OO.........OO.XX.oo.. OOO+++OO.. ",
" ..OO+++OOO .o#O XX .. ....... .. XX O#o. OOO+++OO.. ",
" ..OOO++OOO o###    .. ..XXX.. ..    ###o OOO++OOO.. ",
"  .OOOOO.OO@####+++    .X@@@X.    +++####@OO.OOOOO.  ",
"$$  OOOO.O@#+###+++OOO+X@@@@@X+OOO+++###+#@O.OOOO  $$",
"$$$$..OO.@ +#XXX#++OOO+X@@@@@X+OOO++#XXX#+ @.OO..$$$$",
"$$$$$$..  +#X@@@X#+OOOoOX@@@XOoOOO+#X@@@X#+  ..$$$$$$",
"$$$$$$$$ OOX@@@@@X#OO@OO XXX OO@OO#X@@@@@XOO $$$$$$$$",
"$$$$$$$$$ OX@@@@@X#o@OO $$$$$ OO@o#X@@@@@XO $$$$$$$$$",
"$$$$$$$$$$ OX@@@X....O $$$$$$$ O....X@@@XO $$$$$$$$$$",
"$$$$$$$$$$$O XXX      $$$$$$$$$      XXX O$$$$$$$$$$$"
};
