/* XPM */
static char *ship[] = {
/* columns rows colors chars-per-pixel */
"56 62 16 1",
"  c black",
". c #160134",
"X c #071C4F",
"o c #2B3055",
"O c #223D7C",
"+ c #5A6275",
"@ c #840000",
"# c #CF4400",
"$ c #E88200",
"% c #FFBA00",
"& c #30639D",
"* c #6F7992",
"= c #3B80B6",
"- c #4BA9D0",
"; c #8491B1",
": c gray100",
/* pixels */
":::::::::::::::::::::::::::..:::::::::::::::::::::::::::",
"::::::::::::::::::::::::::.+*.::::::::::::::::::::::::::",
":::::::::::::::::::::::::..+*o.:::::::::::::::::::::::::",
"::::::::::::::::::::::::.o.+**o.::::::::::::::::::::::::",
"::::::::::::::::::::::::.o.+;*o.::::::::::::::::::::::::",
"::::::.#$::::::::::::::.oo.+;*+o.::::::::::::::$$.::::::",
"::::::.oo#.::::::::::::.oo.+;*oo.::::::::::::.$o+.::::::",
"::::::.o+o.::::::::::::.o..o+*+o.::::::::::::.o+*.::::::",
"::::::.o*+.::::::::::::.oO&=-&oo.::::::::::::.o:*.::::::",
"::::::.o**.::::::::::::.O&==--=O.::::::::::::.o;*.::::::",
"::::::.o**.::::::::::::O&X#$$#X=O::::::::::::.o;o.::::::",
"::::o+ oo+.::::::::::::&X$%%%:$X&::::::::::::.o+o.+o::::",
":::+++ oo$#:::::::::::o&#%%%:::#=o:::::::::::#$oo.**+:::",
"::+++o o$$$::::::::::#o&$%#%:::$-o#::::::::::$$$o.o+;+::",
"::++ . #$+o.::::::::@%o&$$@.%:$$-o%@::::::::.oo$#...+;::",
":++o.. #o+o.:::::::@#$o&@#%..%#@-o$#@:::::::.oo+#...o*+:",
":++... oo+o.:::::::%#$o&O@@##@@O-o$#%:::::::.oo+o....+*:",
":+...+ oo+o.::::::.$#o&&&  o+  &-=o#$.::::::.oo;o.o..o;:",
":+..o  oo*o.::::::.$O.=&&o ++ o&--.O$.::::::.oo;o..+..;:",
":+.o . oo*o.::::::.@&=.&&o+  +o&=.=&@.::::::.oo;o...+.*:",
":+. .+ oo+o.::::::.&&=.OX......XO.==O.::::::.oo;o.o...*:",
":+..o+ oo...:::$#:.&&&.XOO=--=OOX.O=&.:#$:::...oo.o+..*:",
":+.oo+ o.+o.::$$$:.&O.OOOO=--=OOOO.O&.:$$$::.oo.o.o++.*:",
":+.oo  .o+o.:#$X.....XOXXO====OXXOX.....X$#:.ooo...++.*:",
":+.o . oo+o.:$XOO&...OX&&X&&&&X&&XO...OOOX$:.oo+o...+.*:",
":+. .. oo+o.:.OOO&.*.OXO&X====XO&XO.*.OOO&.:.oo+o.....*:",
":+...+ oo*o..XOOO=.*.OOXXO=--=OXXOO.*.OOO=&..oo;o.o...*:",
":+..o+ oo*o.XXOOO=.*.OOOOOOOOOOOOOO.*.OOO=&O.oo;o.o+..*:",
":+.oo+ oo&O.XXOOO=.*.O&&==O&&O===-O.*.OOO=&O.OO+o.o++.*:",
":+.oo  oO&O.XXOOO=.. O&&&=O&&O=&&=O ..OOO=&&.OOOo..++.*:",
":+.o . XO=&.XX...... O&&&=O&&O=&&=O ......&&.OO&X...+.*:",
":+. .. O&-&.X.+++:.  O&&&=O&&O&&&=O  .+++:.&.OO&&.....*:",
":+..XXOO&-&..o+++;.  O$%%%OXXO$%%%O  .+++;*..OO&=OXX..*:",
":+XO&OOO&-&.oo+++*.**$&&&=%&&$&&&=%+:.+++;**.OO&-&O&OX*:",
":XO&&OO&XXX.oo+++*.*+O&&&=O&&O&&&=O+*.+++;**.XXX-&O&&&X:",
"XOO&=O&X&-&.oo+++*.*+O&&&=OXXO&&&=O+*.+++;**.OO&O=&&&=&X",
"OOO&=OXO&-&.oo+++*.++O&&&&OXXO&&&&O+*.+++;**.OO&-O=&&-=O",
"OO&&=XOO&=&.oo+ooo.++ XXXX ++ XXXX +*.ooo**+.OO&=&X&&--&",
"OOXXXOOO&=&.ooo   .+++ XX oooo XX ++*.   o++.OO&-&OXXO-&",
"OXO&&OOO&=&.oo ....  +++*......*+++  .... o+.OO&=&O&&-O&",
"XOO&&OOXXXX.....@O&==O++;.oooo.;++O&&=O@.....XXXX&O&&-=O",
"OOOO&OX&&&&.oo...&&==O++;.++++.;++O&&==...oo.&&&&XO&&==&",
"OOOO&OXOOO&..oo..&&&=@++* *;;* *++@&&&=..oo..OOO&XO&&==&",
"OOOOOOXOOO&. .ooo&&@@Oooo oooo oooO@@&=ooo. .OOO&XOOO&=&",
"OOX. . OOO&.@ ...&@&=O$$$ $%%$ $$$O&&@=... @.OOO& . .X&&",
"O. @ @ OOO&.#.   &@&&O..  %%%%  ..O&&@&   .#.OOO& @ @ .&",
"X. # # &OO&.@.@..&&&&O++*.$%%$.*++O&&&&..@.@.&OO& # # .O",
"X. @ # XXXX ..#..O&XXX++*.$$$$.*++XXXO&..#.. XXXX # @ .O",
"X. @ @ XXXXX  @..O&++++**.#$$#.**++++O&..@  XXXXX @ @ .X",
".XX. . XXXX.XO   O&oooooo......ooooooO&   OX.XXXX . .XX.",
":..XXXXXXXX:..OOXO&o$%%$o::::::o$%%$oO&XOO..:XXXXXXXX..:",
":::....XXXO:::...O&o%%%%o::::::o%%%%oO&...:::XXXO....:::",
":::::::.XX.:::::XO&o$%%$o::::::o$%%$oO&X:::::.XX.:::::::",
"::::::::::::::::XO&o#$$#O::::::O#$$#oO&X::::::::::::::::",
"::::::::::::::::XO&..... :::::: .....O&X::::::::::::::::",
"::::::::::::::::XO&::::::::::::::::::O&X::::::::::::::::",
"::::::::::::::::XO&::::::::::::::::::O&X::::::::::::::::",
":::::::::::::::: XX::::::::::::::::::XX ::::::::::::::::",
":::::::::::::::: XX::::::::::::::::::XX ::::::::::::::::",
":::::::::::::::: XX::::::::::::::::::XX ::::::::::::::::",
":::::::::::::::: OX::::::::::::::::::XO ::::::::::::::::",
":::::::::::::::: ..::::::::::::::::::.. ::::::::::::::::"
};
